# xmcd
#
# Track frame offsets:
#   150
#   11275
#   23180
#   33204
#   44555
#   56866
#   67622
#   79801
#   97802
#   108785
#   121234
#   133160
#
# Disc length: 1903 seconds
#
# Revision: 0
# Processed by: cddbd v1.4PL0 Copyright (c) Steve Scherf et al.
# Submitted via: CD-Datenbank 4.*
#
DISCID=8d076d0c
DTITLE=John Lee Hooker - Boom Boom
DYEAR=2001
DGENRE=Blues
TTITLE0=Boom Boom
TTITLE1=I'm Bad Like Jesse James
TTITLE2=Dimples
TTITLE3=Boogie Chillen 2
TTITLE4=Hobo Blues
TTITLE5=No Shoes
TTITLE6=Drug Store Woman
TTITLE7=House Rent Boogie
TTITLE8=Little Wheel
TTITLE9=Trouble Blues
TTITLE10=Whiskey And Wimmen
TTITLE11=Dusty Road
EXTD=CD97071
EXTT0=
EXTT1=
EXTT2=
EXTT3=
EXTT4=
EXTT5=
EXTT6=
EXTT7=
EXTT8=
EXTT9=
EXTT10=
EXTT11=
PLAYORDER=
